<?xml version="1.0" encoding="utf-8"?>
<!-- Generator: Adobe Illustrator 20.0.0, SVG Export Plug-In . SVG Version: 6.00 Build 0)  -->
<svg version="1.1" id="图层_1" xmlns="http://www.w3.org/2000/svg" xmlns:xlink="http://www.w3.org/1999/xlink" x="0px" y="0px"
	 viewBox="0 0 44 44" style="enable-background:new 0 0 44 44;" xml:space="preserve">
<style type="text/css">
	.st0{fill:#EA1341;}
</style>
<path class="st0" d="M18.3,20.3h-14c-0.8,0-1.7-0.7-1.7-1.7v-14C2.7,3.8,3.4,3,4.4,3h14C19.2,3,20,3.7,20,4.7v14
	C20,19.6,19.2,20.3,18.3,20.3z"/>
<path class="st0" d="M39.3,20H25.8c-0.8,0-1.6-0.7-1.6-1.6V4.9c0-0.8,0.7-1.6,1.6-1.6h13.4c0.8,0,1.6,0.7,1.6,1.6v13.4
	C40.9,19.3,40.2,20,39.3,20z"/>
<path class="st0" d="M39.3,40.2H25.8c-0.8,0-1.6-0.7-1.6-1.6V25.1c0-0.8,0.7-1.6,1.6-1.6h13.4c0.8,0,1.6,0.7,1.6,1.6v13.4
	C40.9,39.5,40.2,40.2,39.3,40.2z"/>
<path class="st0" d="M18.2,40.3H4.5c-0.8,0-1.6-0.7-1.6-1.6V25c0-0.8,0.7-1.6,1.6-1.6h13.7c0.8,0,1.6,0.7,1.6,1.6v13.7
	C19.8,39.6,19,40.3,18.2,40.3z"/>
</svg>
