<?xml version="1.0" encoding="utf-8"?>
<!-- Generator: Adobe Illustrator 20.0.0, SVG Export Plug-In . SVG Version: 6.00 Build 0)  -->
<svg version="1.1" id="图层_1" xmlns="http://www.w3.org/2000/svg" xmlns:xlink="http://www.w3.org/1999/xlink" x="0px" y="0px"
	 viewBox="0 0 44 44" style="enable-background:new 0 0 44 44;" xml:space="preserve">
<style type="text/css">
	.st0{fill:none;stroke:#000000;stroke-width:3;stroke-miterlimit:10;}
</style>
<path class="st0" d="M17.2,18.9H5.5c-0.7,0-1.4-0.6-1.4-1.4V5.8c0-0.7,0.6-1.4,1.4-1.4h11.7c0.7,0,1.4,0.6,1.4,1.4v11.7
	C18.6,18.3,17.9,18.9,17.2,18.9z"/>
<path class="st0" d="M38.4,18.9H26.7c-0.7,0-1.4-0.6-1.4-1.4V5.8c0-0.7,0.6-1.4,1.4-1.4h11.7c0.7,0,1.4,0.6,1.4,1.4v11.7
	C39.8,18.3,39.2,18.9,38.4,18.9z"/>
<path class="st0" d="M38.4,39.1H26.7c-0.7,0-1.4-0.6-1.4-1.4V26c0-0.7,0.6-1.4,1.4-1.4h11.7c0.7,0,1.4,0.6,1.4,1.4v11.7
	C39.8,38.5,39.2,39.1,38.4,39.1z"/>
<path class="st0" d="M17.2,39.1H5.5c-0.7,0-1.4-0.6-1.4-1.4V26c0-0.7,0.6-1.4,1.4-1.4h11.7c0.7,0,1.4,0.6,1.4,1.4v11.7
	C18.6,38.5,17.9,39.1,17.2,39.1z"/>
</svg>
