<?xml version="1.0" encoding="utf-8"?>
<!-- Generator: Adobe Illustrator 20.0.0, SVG Export Plug-In . SVG Version: 6.00 Build 0)  -->
<svg version="1.1" id="图层_1" xmlns="http://www.w3.org/2000/svg" xmlns:xlink="http://www.w3.org/1999/xlink" x="0px" y="0px"
	 viewBox="0 0 44 44" style="enable-background:new 0 0 44 44;" xml:space="preserve">
<style type="text/css">
	.st0{fill:#EA1341;}
</style>
<path class="st0" d="M11,10.1C1.3,18.2-0.8,21,2.9,21c1.9,0,2,0.7,2.3,10.2l0.3,10.3h6h6L18,37c0.7-5.5,1.5-7,4-7s3.3,1.5,4,7
	l0.5,4.5h6h6l0.3-10.2c0.3-9.6,0.4-10.3,2.3-10.3c1.3,0,1.9-0.6,1.7-1.5C42.4,17.5,23.9,2,22,2.1C21.2,2.1,16.2,5.7,11,10.1z"/>
</svg>
