<?xml version="1.0" encoding="utf-8"?>
<!-- Generator: Adobe Illustrator 20.0.0, SVG Export Plug-In . SVG Version: 6.00 Build 0)  -->
<svg version="1.1" id="图层_1" xmlns="http://www.w3.org/2000/svg" xmlns:xlink="http://www.w3.org/1999/xlink" x="0px" y="0px"
	 viewBox="0 0 44 44" style="enable-background:new 0 0 44 44;" xml:space="preserve">
<style type="text/css">
	.st0{fill:#EA1341;}
</style>
<g transform="translate(0.000000,44.000000) scale(0.100000,-0.100000)">
	<path class="st0" d="M130,412c-19-10-48-36-65-56c-28-35-30-44-30-116c0-73,2-80,33-119c27-33,31-44,22-60c-5-11-10-27-10-35
		c0-24,29-19,39,6c7,20,15,21,101,22c87,1,93,0,101-21c10-26,39-31,39-7c0,8-5,24-10,35c-9,16-5,27,22,60c28,35,33,49,36,107
		c4,79-14,119-72,166c-31,26-47,31-104,34C180,430,157,427,130,412z"/>
</g>
</svg>
