<?xml version="1.0" encoding="utf-8"?>
<!-- Generator: Adobe Illustrator 20.0.0, SVG Export Plug-In . SVG Version: 6.00 Build 0)  -->
<svg version="1.1" id="图层_1" xmlns="http://www.w3.org/2000/svg" xmlns:xlink="http://www.w3.org/1999/xlink" x="0px" y="0px"
	 viewBox="0 0 44 44" style="enable-background:new 0 0 44 44;" xml:space="preserve">
<style type="text/css">
	.st0{fill:#EA1341;}
</style>
<g transform="translate(0.000000,44.000000) scale(0.100000,-0.100000)">
	<path class="st0" d="M0,405c0-8,6-15,14-15c21,0,23-6,46-136C91,73,73,89,247,92c187,4,194,21,11,28c-116,4-133,7-136,22
		c-3,16,9,18,136,18c100,0,142,4,149,13c18,22,35,158,22,173c-9,11-49,14-180,14c-156,0-169,1-169,18c0,26-20,42-52,42
		C10,420,0,415,0,405z"/>
</g>
</svg>
